<svg xmlns="http://www.w3.org/2000/svg" viewBox="556.1 352.1 806.8 374.8"><g id="UhFOSR.tif"><path d="M729.71,554.76l-.16-114.68-49.88,66.49c-3.2.75-5.99.74-9.16.02l-49.01-66.64-.49,114.81h-34.59s-.04-168.22-.04-168.22l38.7-.28,50.63,69.45,50.63-69.41,36.77-.06c.6.24,2.17,1.84,2.17,2.63l-.04,165.82-35.54.08Z" style="fill:#2d99da;"></path><path d="M922.71,487.03h-90.12s0,32.53,0,32.53l90.05-.02c1.72,0,3.48,1.8,3.48,3.31l-.02,29.23c0,2.25-2,3.43-4.34,3.43h-120.8c-1.01,0-3.29-1.06-3.58-1.89l.05-168.35,125.15-.09c1.92,0,3.44,1.74,3.54,3.39l.02,28.36c0,1.09-1.61,3.36-2.83,3.36h-90.72s0,33.37,0,33.37l90,.02.13,33.35Z" style="fill:#2c98d8;"></path><path d="M953.36,554.84l-.02-34.18,69.67-.22c14.57-.05,29.25-6.2,37.31-18.42,9.62-14.58,11.42-32.72,6.65-49.15-5.55-19.13-21.48-32.94-41.79-33.14l-71.98-.69-.07-33.06,69.01.08c9.93.01,19.94,1.36,29.13,4.48,19.45,6.61,35.41,20.48,44,38.83,12.25,26.18,12.49,53.17,1.22,79.54-7.6,17.78-21.6,31.32-39.48,38.62-10.24,4.19-21,7.19-32.28,7.21l-71.38.1Z" style="fill:#2d99d8;"></path><path d="M1236.54,516.43c20.22,13.25,52.44,11.65,70.82-5.57.99-.93,3.33-1.85,4.29-1.61s2.09,1.48,3.11,2.5l18.57,18.57c1.06,1.06-.99,4.54-2.25,5.6-12.61,10.63-27.45,18.35-43.81,20.99-29.74,4.79-63.68-1.21-84.75-24.01-7.47-8.09-13.62-18.09-17.22-28.64-9.69-28.41-7.14-55.68,7.53-81.5,14.72-25.91,40.67-37.58,69.62-39.86,26.11-2.06,51.78,7.61,70.09,26.86l-21.23,20.78c-1.42,1.39-4.53.43-5.46-1.4-17.81-14.08-43.05-17.04-63.28-7.02-20.03,9.92-28.48,30.43-28.1,51.77.15,8.24,1.97,15.06,5.13,22.28,3.81,8.7,9.11,15.13,16.93,20.26Z" style="fill:#2d99d8;"></path><path d="M1159.45,550.57c0,3.72-1.27,5.05-4.28,5.02l-30.89-.36-.02-169.76,35.17-.18.02,165.29Z" style="fill:#2c98d8;"></path><polygon points="995.6 510.12 968.14 510.16 968.14 484.47 941.51 484.47 941.61 456.29 968.04 456.23 968.24 430.61 995.52 430.59 995.61 456.23 1022.02 456.23 1022.25 484.29 995.58 484.54 995.6 510.12" style="fill:#939599;"></polygon></g><path d="M601.8,694.59c-6.4-1.86-11.54-4.27-15.42-7.25l6.81-15.11c3.72,2.73,8.13,4.91,13.25,6.57,5.12,1.65,10.24,2.48,15.36,2.48,5.7,0,9.91-.84,12.63-2.54,2.73-1.69,4.09-3.94,4.09-6.75,0-2.06-.81-3.78-2.42-5.14-1.61-1.36-3.67-2.45-6.19-3.28-2.52-.82-5.93-1.73-10.22-2.73-6.61-1.57-12.01-3.14-16.22-4.71-4.21-1.57-7.82-4.09-10.84-7.55-3.01-3.47-4.52-8.09-4.52-13.87,0-5.04,1.36-9.6,4.09-13.69,2.73-4.09,6.83-7.33,12.32-9.72,5.49-2.39,12.2-3.59,20.13-3.59,5.53,0,10.94.66,16.23,1.98,5.28,1.32,9.91,3.22,13.87,5.7l-6.19,15.24c-8.01-4.54-16.02-6.81-24.03-6.81-5.62,0-9.77.91-12.45,2.73-2.68,1.82-4.03,4.21-4.03,7.18s1.55,5.18,4.64,6.63c3.1,1.45,7.82,2.87,14.18,4.27,6.6,1.57,12.01,3.14,16.22,4.71,4.21,1.57,7.82,4.05,10.84,7.43,3.01,3.39,4.52,7.97,4.52,13.75,0,4.96-1.38,9.48-4.15,13.56-2.77,4.09-6.92,7.33-12.45,9.72-5.53,2.39-12.26,3.59-20.19,3.59-6.86,0-13.48-.93-19.88-2.79Z" style="fill:#939599;"></path><path d="M770.31,679.79v16.1h-67.13v-86.7h65.52v16.1h-45.58v18.83h40.25v15.61h-40.25v20.07h47.19Z" style="fill:#939599;"></path><path d="M872.49,695.89l-16.72-24.15h-18.45v24.15h-20.07v-86.7h37.53c7.68,0,14.35,1.28,20,3.84,5.65,2.56,10.01,6.19,13.07,10.9,3.05,4.71,4.58,10.28,4.58,16.72s-1.55,12-4.64,16.66c-3.1,4.67-7.49,8.24-13.19,10.71l19.45,27.87h-21.55ZM867.42,629.44c-3.14-2.6-7.72-3.9-13.75-3.9h-16.35v30.22h16.35c6.03,0,10.61-1.32,13.75-3.96,3.14-2.64,4.71-6.36,4.71-11.15s-1.57-8.61-4.71-11.21Z" style="fill:#939599;"></path><path d="M1022.61,609.19l-37.53,86.7h-19.82l-37.4-86.7h21.68l26.38,61.93,26.75-61.93h19.94Z" style="fill:#939599;"></path><path d="M1060.75,609.19h20.07v86.7h-20.07v-86.7Z" style="fill:#939599;"></path><path d="M1149.87,691.61c-7.14-3.84-12.76-9.17-16.84-15.98-4.09-6.81-6.13-14.51-6.13-23.1s2.04-16.29,6.13-23.1c4.09-6.81,9.7-12.14,16.84-15.98,7.14-3.84,15.17-5.76,24.09-5.76,7.51,0,14.31,1.32,20.37,3.96,6.07,2.64,11.17,6.44,15.3,11.39l-12.88,11.89c-5.86-6.77-13.13-10.16-21.8-10.16-5.37,0-10.16,1.18-14.37,3.53-4.21,2.35-7.49,5.64-9.85,9.85-2.35,4.21-3.53,9-3.53,14.37s1.18,10.16,3.53,14.37c2.35,4.21,5.64,7.49,9.85,9.85s9,3.53,14.37,3.53c8.67,0,15.93-3.42,21.8-10.28l12.88,11.89c-4.13,5.04-9.25,8.88-15.36,11.52-6.11,2.64-12.92,3.96-20.44,3.96-8.84,0-16.83-1.92-23.97-5.76Z" style="fill:#939599;"></path><path d="M1321.23,679.79v16.1h-67.13v-86.7h65.52v16.1h-45.58v18.83h40.25v15.61h-40.25v20.07h47.19Z" style="fill:#939599;"></path></svg>