<svg xmlns="http://www.w3.org/2000/svg" viewBox="318.5 435.5 1282.0 208.0"><g id="UhFOSR.tif"><path d="M457.27,593.87l-.1-72.64-31.6,42.12c-2.02.48-3.79.47-5.8.01l-31.05-42.21-.31,72.72h-21.91s-.03-106.56-.03-106.56l24.52-.17,32.07,43.99,32.07-43.97,23.29-.04c.38.15,1.38,1.17,1.38,1.66l-.03,105.04-22.51.05Z" style="fill:#2d99da;"></path><path d="M579.52,550.96h-57.09s0,20.61,0,20.61h57.04c1.09-.01,2.21,1.13,2.2,2.08v18.52c-.02,1.43-1.28,2.17-2.77,2.17h-76.52c-.64,0-2.08-.67-2.27-1.2l.03-106.64,79.27-.06c1.21,0,2.18,1.1,2.24,2.15v17.96c.01.69-1.01,2.13-1.78,2.13h-57.46s0,21.14,0,21.14h57.01s.08,21.14.08,21.14Z" style="fill:#2d99da;"></path><path d="M598.93,593.92v-21.65s44.12-.14,44.12-.14c9.23-.03,18.53-3.92,23.64-11.67,6.09-9.23,7.23-20.73,4.21-31.13-3.51-12.12-13.61-20.87-26.47-20.99l-45.6-.44-.04-20.94,43.72.05c6.29,0,12.63.86,18.45,2.84,12.32,4.19,22.43,12.97,27.87,24.6,7.76,16.58,7.91,33.68.77,50.38-4.82,11.26-13.68,19.84-25.01,24.47-6.48,2.65-13.3,4.56-20.45,4.57l-45.21.06Z" style="fill:#2d99da;"></path><path d="M778.31,569.59c12.81,8.39,33.22,7.38,44.86-3.53.63-.59,2.11-1.17,2.72-1.02s1.32.94,1.97,1.58l11.77,11.76c.67.67-.63,2.87-1.43,3.55-7.99,6.73-17.39,11.63-27.75,13.29-18.84,3.03-40.34-.76-53.69-15.21-4.73-5.12-8.63-11.46-10.91-18.14-6.14-18-4.52-35.27,4.77-51.63,9.33-16.41,25.76-23.8,44.1-25.25,16.54-1.3,32.8,4.82,44.4,17.02l-13.45,13.16c-.9.88-2.87.27-3.46-.88-11.28-8.92-27.27-10.8-40.08-4.45-12.69,6.29-18.04,19.28-17.8,32.79.09,5.22,1.25,9.54,3.25,14.11,2.41,5.51,5.77,9.58,10.73,12.83Z" style="fill:#2d99da;"></path><path d="M729.48,591.21c0,2.36-.8,3.2-2.71,3.18l-19.57-.23v-107.53s22.26-.12,22.26-.12l.02,104.7Z" style="fill:#2d99da;"></path><polygon points="625.69 565.59 608.29 565.62 608.29 549.34 591.43 549.34 591.49 531.49 608.23 531.45 608.36 515.22 625.64 515.21 625.69 531.46 642.43 531.45 642.57 549.23 625.68 549.39 625.69 565.59" style="fill:#2d99da;"></polygon></g><path d="M898.23,590.49c-7.86-2.28-14.17-5.25-18.93-8.9l8.36-18.56c4.56,3.35,9.99,6.03,16.28,8.06,6.28,2.03,12.57,3.04,18.86,3.04,7,0,12.17-1.04,15.51-3.12,3.35-2.08,5.02-4.84,5.02-8.29,0-2.53-.99-4.64-2.96-6.31-1.98-1.67-4.51-3.02-7.61-4.03-3.09-1.01-7.28-2.13-12.55-3.35-8.11-1.92-14.75-3.85-19.92-5.78-5.17-1.92-9.61-5.02-13.31-9.28-3.7-4.26-5.55-9.94-5.55-17.03,0-6.18,1.67-11.79,5.02-16.81,3.35-5.02,8.39-9,15.13-11.94,6.74-2.94,14.98-4.41,24.72-4.41,6.79,0,13.43.81,19.92,2.43,6.49,1.62,12.17,3.95,17.03,7l-7.6,18.71c-9.84-5.58-19.67-8.37-29.51-8.37-6.9,0-11.99,1.12-15.28,3.35-3.3,2.23-4.94,5.17-4.94,8.82s1.9,6.37,5.7,8.14c3.8,1.77,9.61,3.52,17.42,5.25,8.11,1.93,14.75,3.86,19.92,5.78,5.17,1.93,9.61,4.97,13.31,9.13,3.7,4.16,5.55,9.79,5.55,16.88,0,6.08-1.7,11.64-5.09,16.65-3.4,5.02-8.49,9-15.28,11.94-6.8,2.94-15.06,4.41-24.79,4.41-8.42,0-16.56-1.14-24.41-3.42Z" style="fill:#2d99da;"></path><path d="M1067.13,572.32v19.77h-82.44v-106.47h80.46v19.77h-55.97v23.12h49.43v19.16h-49.43v24.64h57.95Z" style="fill:#2d99da;"></path><path d="M1154.58,592.09l-20.53-29.66h-22.66v29.66h-24.64v-106.47h46.09c9.43,0,17.62,1.57,24.56,4.72,6.95,3.14,12.29,7.6,16.05,13.38,3.75,5.78,5.63,12.63,5.63,20.53s-1.9,14.73-5.7,20.46c-3.8,5.73-9.2,10.12-16.2,13.16l23.88,34.22h-26.47ZM1148.35,510.49c-3.85-3.19-9.48-4.79-16.88-4.79h-20.08v37.11h20.08c7.4,0,13.03-1.62,16.88-4.87,3.85-3.24,5.78-7.81,5.78-13.69s-1.93-10.57-5.78-13.76Z" style="fill:#2d99da;"></path><path d="M1300.9,485.62l-46.09,106.47h-24.34l-45.93-106.47h26.62l32.4,76.05,32.85-76.05h24.49Z" style="fill:#2d99da;"></path><path d="M1309.72,485.62h24.64v106.47h-24.64v-106.47Z" style="fill:#2d99da;"></path><path d="M1381.12,586.85c-8.77-4.72-15.67-11.26-20.68-19.62-5.02-8.36-7.53-17.82-7.53-28.36s2.51-20,7.53-28.37,11.91-14.91,20.68-19.62c8.77-4.72,18.63-7.07,29.58-7.07,9.23,0,17.57,1.62,25.02,4.87,7.45,3.25,13.71,7.91,18.78,13.99l-15.82,14.6c-7.2-8.31-16.12-12.47-26.77-12.47-6.59,0-12.47,1.44-17.64,4.33-5.17,2.89-9.2,6.92-12.09,12.09-2.89,5.17-4.33,11.05-4.33,17.64s1.45,12.47,4.33,17.64c2.89,5.17,6.92,9.2,12.09,12.09,5.17,2.89,11.05,4.34,17.64,4.34,10.65,0,19.57-4.21,26.77-12.63l15.82,14.6c-5.07,6.19-11.36,10.9-18.86,14.14-7.5,3.24-15.87,4.87-25.1,4.87-10.85,0-20.66-2.36-29.43-7.07Z" style="fill:#2d99da;"></path><path d="M1553.52,572.32v19.77h-82.44v-106.47h80.46v19.77h-55.97v23.12h49.43v19.16h-49.43v24.64h57.95Z" style="fill:#2d99da;"></path></svg>