<svg xmlns="http://www.w3.org/2000/svg" viewBox="608.0 200.0 703.1 679.1"><polygon points="733.08 687.09 823.56 687.09 823.56 589.24 920.56 589.24 920.56 498.76 823.56 498.76 823.56 400.92 733.08 400.92 733.08 498.76 634.39 498.76 634.39 589.24 733.08 589.24 733.08 687.09" style="fill:#ffffff;"></polygon><path d="M1260.92,417.83c-15.81-37.38-38.43-70.93-67.23-99.73-28.8-28.8-62.36-51.42-99.73-67.23-38.73-16.38-79.83-24.69-122.17-24.69h-286.96v123.23h286.96c52.04,0,99.28,20.97,133.71,54.9,35.09,34.59,56.87,82.64,56.87,135.68,0,105.09-85.5,190.58-190.58,190.58h-292.15v123.23h292.15c42.34,0,83.44-8.31,122.17-24.69,37.38-15.81,70.93-38.43,99.73-67.23,28.8-28.8,51.42-62.36,67.23-99.73,16.38-38.73,24.69-79.83,24.69-122.17s-8.31-83.44-24.69-122.17Z" style="fill:#ffffff;"></path></svg>